<?xml version="1.0" encoding="UTF-8" standalone="no"?>
<svg
   xmlns:dc="http://purl.org/dc/elements/1.1/"
   xmlns:cc="http://creativecommons.org/ns#"
   xmlns:rdf="http://www.w3.org/1999/02/22-rdf-syntax-ns#"
   xmlns:svg="http://www.w3.org/2000/svg"
   xmlns="http://www.w3.org/2000/svg"
   xmlns:sodipodi="http://sodipodi.sourceforge.net/DTD/sodipodi-0.dtd"
   xmlns:inkscape="http://www.inkscape.org/namespaces/inkscape"
   version="1.0"
   width="796.000000pt"
   height="244.000000pt"
   viewBox="0 0 796.000000 244.000000"
   preserveAspectRatio="xMidYMid meet"
   id="svg3355"
   inkscape:version="0.91 r13725"
   sodipodi:docname="live-love-code.svg">
  <defs
     id="defs3403" />
  <sodipodi:namedview
     pagecolor="#ffffff"
     bordercolor="#666666"
     borderopacity="1"
     objecttolerance="10"
     gridtolerance="10"
     guidetolerance="10"
     inkscape:pageopacity="0"
     inkscape:pageshadow="2"
     inkscape:window-width="1366"
     inkscape:window-height="716"
     id="namedview3401"
     showgrid="false"
     inkscape:zoom="1.1728643"
     inkscape:cx="364.49229"
     inkscape:cy="152.5"
     inkscape:window-x="0"
     inkscape:window-y="0"
     inkscape:window-maximized="1"
     inkscape:current-layer="svg3355" />
  <metadata
     id="metadata3357">
Created by potrace 1.14, written by Peter Selinger 2001-2017
<rdf:RDF>
  <cc:Work
     rdf:about="">
    <dc:format>image/svg+xml</dc:format>
    <dc:type
       rdf:resource="http://purl.org/dc/dcmitype/StillImage" />
  </cc:Work>
</rdf:RDF>
</metadata>
  <g
     transform="translate(0.000000,244.000000) scale(0.100000,-0.100000)"
     fill="#000000"
     stroke="none"
     id="g3359"
     style="fill:#e7624d;fill-opacity:1">
    <path
       d="M2825 2279 c-63 -9 -95 -21 -151 -60 -89 -61 -153 -204 -139 -309 15 -112 100 -226 203 -273 72 -33 198 -31 273 4 69 33 129 91 166 161 24 46 28 64 28 143 0 74 -4 98 -23 137 -69 139 -209 217 -357 197z m157 -45 c64 -21 131 -83 165 -152 24 -48 28 -70 28 -137 0 -94 -23 -150 -86 -214 -65 -65 -119 -86 -219 -86 -73 0 -92 4 -135 27 -110 58 -167 152 -167 274 0 148 94 267 239 304 46 11 112 5 175 -16z"
       id="path3361"
       style="fill:#e7624d;fill-opacity:1" />
    <path
       d="M190 2265 c0 -10 11 -15 35 -15 l35 0 0 -305 0 -305 -35 0 c-24 0 -35 -5 -35 -15 0 -12 17 -15 90 -15 73 0 90 3 90 15 0 11 -11 15 -40 15 l-40 0 0 145 0 145 210 0 210 0 0 -145 0 -145 -40 0 c-29 0 -40 -4 -40 -15 0 -12 17 -15 95 -15 76 0 95 3 95 14 0 10 -13 16 -37 18 l-38 3 0 300 0 300 38 3 c24 2 37 8 37 18 0 11 -19 14 -95 14 -78 0 -95 -3 -95 -15 0 -11 11 -15 40 -15 l40 0 0 -145 0 -145 -210 0 -210 0 0 145 0 145 40 0 c29 0 40 4 40 15 0 12 -17 15 -90 15 -73 0 -90 -3 -90 -15z"
       id="path3363"
       style="fill:#e7624d;fill-opacity:1" />
    <path
       d="M900 2265 c0 -10 10 -15 30 -15 l30 0 0 -305 0 -305 -30 0 c-20 0 -30 -5 -30 -15 0 -13 33 -15 235 -15 l235 0 0 70 c0 56 -3 70 -15 70 -12 0 -15 -13 -15 -55 l0 -55 -172 2 -173 3 -3 143 -3 142 166 0 c139 0 165 2 165 15 0 12 -27 15 -162 17 l-163 3 0 140 0 140 163 3 162 2 0 -55 c0 -42 3 -55 15 -55 12 0 15 14 15 70 l0 70 -225 0 c-193 0 -225 -2 -225 -15z"
       id="path3365"
       style="fill:#e7624d;fill-opacity:1" />
    <path
       d="M1440 2265 c0 -10 11 -15 35 -15 l35 0 0 -305 0 -305 -35 0 c-24 0 -35 -5 -35 -15 0 -13 33 -15 235 -15 l235 0 0 70 c0 56 -3 70 -15 70 -12 0 -15 -13 -15 -55 l0 -55 -170 0 -170 0 0 305 0 305 40 0 c29 0 40 4 40 15 0 12 -17 15 -90 15 -73 0 -90 -3 -90 -15z"
       id="path3367"
       style="fill:#e7624d;fill-opacity:1" />
    <path
       d="M1990 2265 c0 -10 10 -15 30 -15 l30 0 0 -305 0 -305 -30 0 c-20 0 -30 -5 -30 -15 0 -13 33 -15 235 -15 l235 0 0 70 c0 56 -3 70 -15 70 -12 0 -15 -13 -15 -55 l0 -55 -172 2 -173 3 0 300 0 300 38 3 c24 2 37 8 37 18 0 11 -18 14 -85 14 -69 0 -85 -3 -85 -15z"
       id="path3369"
       style="fill:#e7624d;fill-opacity:1" />
    <path
       d="M3580 2265 c0 -10 11 -15 35 -15 l35 0 0 -305 0 -305 -35 0 c-24 0 -35 -5 -35 -15 0 -12 17 -15 90 -15 73 0 90 3 90 15 0 11 -11 15 -40 15 l-40 0 0 305 0 305 40 0 c29 0 40 4 40 15 0 12 -17 15 -90 15 -73 0 -90 -3 -90 -15z"
       id="path3371"
       style="fill:#e7624d;fill-opacity:1" />
    <path
       d="M3980 2265 c0 -11 11 -15 40 -15 l40 0 0 -305 0 -305 -40 0 c-29 0 -40 -4 -40 -15 0 -12 17 -15 95 -15 78 0 95 3 95 15 0 11 -11 15 -40 15 l-40 0 0 283 1 282 25 -30 c14 -16 84 -107 157 -202 72 -94 134 -170 138 -167 6 3 256 327 293 379 8 11 16 18 18 15 2 -3 2 -130 0 -282 l-3 -278 -34 0 c-24 0 -35 -5 -35 -15 0 -12 17 -15 90 -15 72 0 90 3 90 14 0 10 -13 16 -37 18 l-38 3 0 300 0 300 38 3 c56 5 50 32 -7 32 l-43 0 -164 -214 c-90 -118 -167 -215 -170 -215 -3 -1 -80 96 -170 214 l-164 214 -47 1 c-36 0 -48 -4 -48 -15z"
       id="path3373"
       style="fill:#e7624d;fill-opacity:1" />
    <path
       d="M5200 2266 c0 -11 9 -16 30 -16 l30 0 0 -305 0 -305 -30 0 c-20 0 -30 -5 -30 -15 0 -12 17 -15 90 -15 73 0 90 3 90 15 0 11 -12 15 -45 15 l-45 0 0 145 0 145 55 2 c30 0 60 1 67 2 6 1 45 -72 86 -161 l76 -163 48 0 c35 0 48 4 48 14 0 10 -13 16 -40 18 l-40 3 -65 139 c-36 77 -65 142 -65 146 0 4 18 15 41 25 98 44 128 167 61 246 -45 54 -100 72 -239 77 -109 4 -123 3 -123 -12z m286 -43 c76 -39 103 -113 66 -183 -27 -49 -74 -70 -176 -77 l-86 -6 0 148 0 148 79 -5 c51 -3 91 -11 117 -25z"
       id="path3375"
       style="fill:#e7624d;fill-opacity:1" />
    <path
       d="M5750 2265 c0 -10 11 -15 35 -15 l35 0 0 -223 c0 -170 4 -236 15 -274 52 -175 320 -195 407 -30 21 39 23 57 26 285 l4 242 34 0 c24 0 34 5 34 15 0 12 -17 15 -90 15 -73 0 -90 -3 -90 -15 0 -11 11 -15 41 -15 l41 0 -4 -237 c-3 -232 -4 -239 -28 -282 -45 -81 -155 -114 -248 -76 -99 42 -112 87 -112 377 l0 218 40 0 c29 0 40 4 40 15 0 12 -17 15 -90 15 -73 0 -90 -3 -90 -15z"
       id="path3377"
       style="fill:#e7624d;fill-opacity:1" />
    <path
       d="M6420 2266 c0 -11 9 -16 30 -16 l30 0 0 -305 0 -305 -30 0 c-20 0 -30 -5 -30 -15 0 -12 15 -15 73 -15 240 2 360 58 426 199 20 45 25 71 26 136 0 71 -4 88 -33 147 -65 132 -151 177 -359 185 -119 5 -133 4 -133 -11z m311 -41 c173 -60 243 -295 135 -452 -58 -85 -170 -133 -309 -133 l-47 0 0 306 0 307 88 -6 c48 -3 108 -13 133 -22z"
       id="path3379"
       style="fill:#e7624d;fill-opacity:1" />
    <path
       d="M7020 2265 c0 -11 11 -15 38 -15 l37 0 113 -188 112 -188 0 -117 0 -117 -35 0 c-24 0 -35 -5 -35 -15 0 -12 17 -15 95 -15 78 0 95 3 95 15 0 11 -11 15 -40 15 l-40 0 0 110 0 111 116 194 c114 193 116 195 150 195 24 0 34 5 34 15 0 12 -17 15 -90 15 -73 0 -90 -3 -90 -15 0 -10 11 -15 35 -15 19 0 35 -2 35 -4 0 -2 -45 -80 -101 -172 -92 -155 -119 -193 -119 -165 0 5 -40 77 -90 159 -114 189 -111 182 -66 182 25 0 36 4 36 15 0 12 -17 15 -95 15 -78 0 -95 -3 -95 -15z"
       id="path3381"
       style="fill:#e7624d;fill-opacity:1" />
    <path
       d="M1355 1156 c-233 -58 -400 -288 -381 -523 21 -265 231 -463 492 -464 145 -1 244 41 350 145 132 132 180 291 139 465 -64 268 -340 442 -600 377z m289 -129 c250 -124 300 -460 97 -650 -159 -149 -399 -146 -551 6 -61 61 -96 130 -111 222 -29 167 60 342 211 420 68 35 114 45 197 42 71 -3 92 -8 157 -40z"
       id="path3383"
       style="fill:#e7624d;fill-opacity:1" />
    <path
       d="M1360 780 l0 -40 40 0 40 0 0 -145 0 -145 -40 0 -40 0 0 -40 0 -40 120 0 120 0 0 40 0 40 -40 0 -40 0 0 185 0 185 -80 0 -80 0 0 -40z"
       id="path3385"
       style="fill:#e7624d;fill-opacity:1" />
    <path
       d="M4663 1156 c-181 -44 -334 -202 -372 -384 -52 -252 95 -507 338 -582 88 -28 215 -28 292 -2 48 17 116 48 128 58 2 1 -10 20 -25 42 l-28 39 -52 -24 c-152 -69 -330 -38 -445 78 -54 53 -83 105 -104 186 -69 265 141 521 410 500 38 -3 85 -11 103 -17 32 -12 32 -13 32 -76 l0 -64 50 0 50 0 0 94 0 93 -57 26 c-107 48 -213 59 -320 33z"
       id="path3387"
       style="fill:#e7624d;fill-opacity:1" />
    <path
       d="M5475 1156 c-233 -58 -400 -288 -381 -523 21 -265 231 -463 492 -464 145 -1 244 41 350 145 132 132 180 291 139 465 -64 268 -340 442 -600 377z m289 -129 c250 -124 300 -460 97 -650 -159 -149 -399 -146 -551 6 -61 61 -96 130 -111 222 -29 167 60 342 211 420 68 35 114 45 197 42 71 -3 92 -8 157 -40z"
       id="path3389"
       style="fill:#e7624d;fill-opacity:1" />
    <path
       d="M220 1110 l0 -50 45 0 45 0 0 -395 0 -395 -45 0 -45 0 0 -50 0 -50 350 0 350 0 0 130 0 130 -45 0 -44 0 -3 -77 -3 -78 -207 -3 -208 -2 0 395 0 395 55 0 55 0 0 50 0 50 -150 0 -150 0 0 -50z"
       id="path3391"
       style="fill:#e7624d;fill-opacity:1" />
    <path
       d="M3120 1110 l0 -50 50 0 50 0 -2 -392 -3 -393 -47 -3 -48 -3 0 -50 0 -49 355 0 355 0 0 130 0 130 -50 0 -50 0 0 -80 0 -80 -205 0 -205 0 0 175 0 175 220 0 220 0 0 50 0 50 -220 0 -220 0 0 170 0 170 200 0 200 0 0 -75 0 -75 45 0 45 0 0 125 0 125 -345 0 -345 0 0 -50z"
       id="path3393"
       style="fill:#e7624d;fill-opacity:1" />
    <path
       d="M6140 1110 l0 -50 40 0 40 0 0 -395 0 -395 -40 0 -40 0 0 -52 0 -51 183 6 c262 9 361 41 470 156 261 273 129 730 -234 816 -44 10 -119 15 -241 15 l-178 0 0 -50z m470 -87 c289 -135 292 -569 4 -705 -59 -27 -162 -47 -251 -48 l-43 0 0 396 0 397 113 -5 c100 -4 120 -8 177 -35z"
       id="path3395"
       style="fill:#e7624d;fill-opacity:1" />
    <path
       d="M6980 1110 l0 -50 45 0 45 0 0 -395 0 -395 -45 0 -45 0 0 -50 0 -50 355 0 355 0 0 130 0 130 -50 0 -50 0 0 -80 0 -80 -210 0 -210 0 0 175 0 175 225 0 225 0 0 50 0 50 -225 0 -225 0 0 170 0 170 200 0 200 0 0 -75 0 -75 50 0 50 0 0 125 0 125 -345 0 -345 0 0 -50z"
       id="path3397"
       style="fill:#e7624d;fill-opacity:1" />
    <path
       d="M2020 1100 l0 -50 59 0 59 0 20 -47 c11 -27 100 -237 197 -468 97 -231 180 -423 184 -427 3 -4 96 206 206 467 l199 475 63 0 63 0 0 50 0 50 -155 0 -155 0 0 -49 0 -50 38 -3 39 -3 -143 -340 c-78 -187 -146 -341 -151 -342 -8 -3 -293 660 -293 680 0 4 18 7 40 7 l40 0 0 50 0 50 -155 0 -155 0 0 -50z"
       id="path3399"
       style="fill:#e7624d;fill-opacity:1" />
  </g>
  <circle
     style="fill:#e7624d;fill-rule:evenodd;stroke:none;stroke-width:0.80000001px;stroke-linecap:butt;stroke-linejoin:miter;stroke-opacity:1;fill-opacity:1"
     id="path3405"
     cx="145.86221"
     cy="152.25877"
     r="5.7977724" />
</svg>
